<?xml version="1.0" standalone="no"?><!DOCTYPE svg PUBLIC "-//W3C//DTD SVG 1.1//EN" "http://www.w3.org/Graphics/SVG/1.1/DTD/svg11.dtd"><svg t="1616301596213" class="icon" viewBox="0 0 1024 1024" version="1.1" xmlns="http://www.w3.org/2000/svg" p-id="1841" xmlns:xlink="http://www.w3.org/1999/xlink" width="200" height="200"><defs><style type="text/css"></style></defs><path d="M881.152 155.648H142.848C89.6 155.648 46.08 199.168 46.08 252.416v514.048c0 53.248 43.52 96.768 96.768 96.768h738.304c53.248 0 96.768-43.52 96.768-96.768V252.416c0-53.248-43.52-96.768-96.768-96.768zM142.848 208.384h738.304c24.064 0 44.032 19.968 44.032 44.032v40.448L512 622.08 98.816 292.864v-40.448c0-24.064 19.968-44.032 44.032-44.032z m738.304 602.112H142.848c-24.064 0-44.032-19.968-44.032-44.032V360.448l396.8 315.904c4.608 3.584 10.752 5.632 16.384 5.632s11.776-2.048 16.384-5.632l396.8-315.904v406.016c0 24.064-19.968 44.032-44.032 44.032z" fill="#ff8198" p-id="1842"></path></svg>